<svg width="818" height="60" viewBox="0 0 818 60" fill="none" xmlns="http://www.w3.org/2000/svg">
<path d="M52.392 21.1875H39.9489C39.7216 19.5777 39.2576 18.1477 38.5568 16.8977C37.8561 15.6288 36.9564 14.5492 35.858 13.6591C34.7595 12.7689 33.4905 12.0871 32.0511 11.6136C30.6307 11.1402 29.0871 10.9034 27.4205 10.9034C24.4091 10.9034 21.786 11.6515 19.5511 13.1477C17.3163 14.625 15.5833 16.7841 14.3523 19.625C13.1212 22.447 12.5057 25.875 12.5057 29.9091C12.5057 34.0568 13.1212 37.5417 14.3523 40.3636C15.6023 43.1856 17.3447 45.3163 19.5795 46.7557C21.8144 48.1951 24.3996 48.9148 27.3352 48.9148C28.983 48.9148 30.5076 48.697 31.9091 48.2614C33.3295 47.8258 34.589 47.1913 35.6875 46.358C36.786 45.5057 37.6951 44.4735 38.4148 43.2614C39.1534 42.0492 39.6648 40.6667 39.9489 39.1136L52.392 39.1705C52.0701 41.8409 51.2652 44.4167 49.9773 46.8977C48.7083 49.3598 46.9943 51.5663 44.8352 53.517C42.6951 55.4489 40.1383 56.983 37.1648 58.1193C34.2102 59.2367 30.8674 59.7955 27.1364 59.7955C21.947 59.7955 17.3068 58.6212 13.2159 56.2727C9.14394 53.9242 5.92424 50.5246 3.55682 46.0739C1.20833 41.6231 0.0340909 36.2348 0.0340909 29.9091C0.0340909 23.5644 1.22727 18.1667 3.61364 13.7159C6 9.26515 9.23864 5.875 13.3295 3.54545C17.4205 1.19697 22.0227 0.0227251 27.1364 0.0227251C30.5076 0.0227251 33.6326 0.49621 36.5114 1.44318C39.4091 2.39015 41.9754 3.77273 44.2102 5.59091C46.4451 7.39015 48.2633 9.59659 49.6648 12.2102C51.0852 14.8239 51.9943 17.8163 52.392 21.1875ZM133.195 29.9091C133.195 36.2538 131.992 41.6515 129.587 46.1023C127.2 50.553 123.943 53.9527 119.814 56.3011C115.704 58.6307 111.083 59.7955 105.95 59.7955C100.78 59.7955 96.1397 58.6212 92.0298 56.2727C87.92 53.9242 84.6719 50.5246 82.2855 46.0739C79.8991 41.6231 78.706 36.2348 78.706 29.9091C78.706 23.5644 79.8991 18.1667 82.2855 13.7159C84.6719 9.26515 87.92 5.875 92.0298 3.54545C96.1397 1.19697 100.78 0.0227251 105.95 0.0227251C111.083 0.0227251 115.704 1.19697 119.814 3.54545C123.943 5.875 127.2 9.26515 129.587 13.7159C131.992 18.1667 133.195 23.5644 133.195 29.9091ZM120.723 29.9091C120.723 25.7992 120.107 22.3333 118.876 19.5114C117.664 16.6894 115.95 14.5492 113.734 13.0909C111.518 11.6326 108.924 10.9034 105.95 10.9034C102.977 10.9034 100.382 11.6326 98.1662 13.0909C95.9503 14.5492 94.2268 16.6894 92.9957 19.5114C91.7836 22.3333 91.1776 25.7992 91.1776 29.9091C91.1776 34.0189 91.7836 37.4848 92.9957 40.3068C94.2268 43.1288 95.9503 45.2689 98.1662 46.7273C100.382 48.1856 102.977 48.9148 105.95 48.9148C108.924 48.9148 111.518 48.1856 113.734 46.7273C115.95 45.2689 117.664 43.1288 118.876 40.3068C120.107 37.4848 120.723 34.0189 120.723 29.9091ZM160.822 59V0.81818H173.124V48.858H198.067V59H160.822ZM278.195 29.9091C278.195 36.2538 276.992 41.6515 274.587 46.1023C272.2 50.553 268.943 53.9527 264.814 56.3011C260.704 58.6307 256.083 59.7955 250.95 59.7955C245.78 59.7955 241.14 58.6212 237.03 56.2727C232.92 53.9242 229.672 50.5246 227.286 46.0739C224.899 41.6231 223.706 36.2348 223.706 29.9091C223.706 23.5644 224.899 18.1667 227.286 13.7159C229.672 9.26515 232.92 5.875 237.03 3.54545C241.14 1.19697 245.78 0.0227251 250.95 0.0227251C256.083 0.0227251 260.704 1.19697 264.814 3.54545C268.943 5.875 272.2 9.26515 274.587 13.7159C276.992 18.1667 278.195 23.5644 278.195 29.9091ZM265.723 29.9091C265.723 25.7992 265.107 22.3333 263.876 19.5114C262.664 16.6894 260.95 14.5492 258.734 13.0909C256.518 11.6326 253.924 10.9034 250.95 10.9034C247.977 10.9034 245.382 11.6326 243.166 13.0909C240.95 14.5492 239.227 16.6894 237.996 19.5114C236.784 22.3333 236.178 25.7992 236.178 29.9091C236.178 34.0189 236.784 37.4848 237.996 40.3068C239.227 43.1288 240.95 45.2689 243.166 46.7273C245.382 48.1856 247.977 48.9148 250.95 48.9148C253.924 48.9148 256.518 48.1856 258.734 46.7273C260.95 45.2689 262.664 43.1288 263.876 40.3068C265.107 37.4848 265.723 34.0189 265.723 29.9091ZM341.76 0.81818H354.061V38.6023C354.061 42.8447 353.048 46.5568 351.021 49.7386C349.014 52.9205 346.201 55.4015 342.584 57.1818C338.966 58.9432 334.752 59.8239 329.942 59.8239C325.112 59.8239 320.889 58.9432 317.271 57.1818C313.654 55.4015 310.841 52.9205 308.834 49.7386C306.826 46.5568 305.822 42.8447 305.822 38.6023V0.81818H318.124V37.5511C318.124 39.767 318.607 41.7367 319.572 43.4602C320.557 45.1837 321.94 46.5379 323.72 47.5227C325.5 48.5076 327.574 49 329.942 49C332.328 49 334.402 48.5076 336.163 47.5227C337.944 46.5379 339.317 45.1837 340.283 43.4602C341.268 41.7367 341.76 39.767 341.76 37.5511V0.81818ZM382.697 59V0.81818H405.652C410.046 0.81818 413.796 1.60417 416.902 3.17614C420.027 4.72917 422.404 6.93561 424.033 9.79545C425.68 12.6364 426.504 15.9792 426.504 19.8239C426.504 23.6875 425.671 27.0114 424.004 29.7955C422.338 32.5606 419.923 34.6818 416.76 36.1591C413.616 37.6364 409.809 38.375 405.339 38.375H389.97V28.4886H403.351C405.699 28.4886 407.65 28.1667 409.203 27.5227C410.756 26.8788 411.911 25.9129 412.669 24.625C413.446 23.3371 413.834 21.7367 413.834 19.8239C413.834 17.892 413.446 16.2633 412.669 14.9375C411.911 13.6117 410.747 12.608 409.175 11.9261C407.622 11.2254 405.661 10.875 403.294 10.875H394.999V59H382.697ZM414.118 32.5227L428.578 59H414.999L400.851 32.5227H414.118ZM523.564 21.1875H511.121C510.893 19.5777 510.429 18.1477 509.729 16.8977C509.028 15.6288 508.128 14.5492 507.03 13.6591C505.931 12.7689 504.662 12.0871 503.223 11.6136C501.803 11.1402 500.259 10.9034 498.592 10.9034C495.581 10.9034 492.958 11.6515 490.723 13.1477C488.488 14.625 486.755 16.7841 485.524 19.625C484.293 22.447 483.678 25.875 483.678 29.9091C483.678 34.0568 484.293 37.5417 485.524 40.3636C486.774 43.1856 488.517 45.3163 490.751 46.7557C492.986 48.1951 495.571 48.9148 498.507 48.9148C500.155 48.9148 501.679 48.697 503.081 48.2614C504.501 47.8258 505.761 47.1913 506.859 46.358C507.958 45.5057 508.867 44.4735 509.587 43.2614C510.325 42.0492 510.837 40.6667 511.121 39.1136L523.564 39.1705C523.242 41.8409 522.437 44.4167 521.149 46.8977C519.88 49.3598 518.166 51.5663 516.007 53.517C513.867 55.4489 511.31 56.983 508.337 58.1193C505.382 59.2367 502.039 59.7955 498.308 59.7955C493.119 59.7955 488.479 58.6212 484.388 56.2727C480.316 53.9242 477.096 50.5246 474.729 46.0739C472.38 41.6231 471.206 36.2348 471.206 29.9091C471.206 23.5644 472.399 18.1667 474.786 13.7159C477.172 9.26515 480.411 5.875 484.501 3.54545C488.592 1.19697 493.195 0.0227251 498.308 0.0227251C501.679 0.0227251 504.804 0.49621 507.683 1.44318C510.581 2.39015 513.147 3.77273 515.382 5.59091C517.617 7.39015 519.435 9.59659 520.837 12.2102C522.257 14.8239 523.166 17.8163 523.564 21.1875ZM550.901 59V0.81818H563.202V24.8239H588.173V0.81818H600.446V59H588.173V34.9659H563.202V59H550.901ZM639.132 59H625.95L646.036 0.81818H661.888L681.945 59H668.763L654.189 14.1136H653.734L639.132 59ZM638.308 36.1307H669.445V45.733H638.308V36.1307ZM739.026 17.5511C738.798 15.2595 737.823 13.4792 736.099 12.2102C734.376 10.9413 732.037 10.3068 729.082 10.3068C727.075 10.3068 725.38 10.5909 723.997 11.1591C722.615 11.7083 721.554 12.4754 720.815 13.4602C720.096 14.4451 719.736 15.5625 719.736 16.8125C719.698 17.8542 719.916 18.7633 720.389 19.5398C720.882 20.3163 721.554 20.9886 722.406 21.5568C723.259 22.1061 724.243 22.589 725.361 23.0057C726.478 23.4034 727.671 23.7443 728.94 24.0284L734.168 25.2784C736.705 25.8466 739.035 26.6042 741.156 27.5511C743.277 28.4981 745.115 29.6629 746.668 31.0455C748.221 32.428 749.423 34.0568 750.276 35.9318C751.147 37.8068 751.592 39.9564 751.611 42.3807C751.592 45.9413 750.683 49.0284 748.884 51.642C747.103 54.2367 744.527 56.2538 741.156 57.6932C737.804 59.1136 733.76 59.8239 729.026 59.8239C724.329 59.8239 720.238 59.1042 716.753 57.6648C713.287 56.2254 710.579 54.0947 708.628 51.2727C706.696 48.4318 705.683 44.9186 705.588 40.733H717.491C717.624 42.6837 718.183 44.3125 719.168 45.6193C720.171 46.9072 721.507 47.8826 723.173 48.5455C724.859 49.1894 726.762 49.5114 728.884 49.5114C730.967 49.5114 732.776 49.2083 734.31 48.6023C735.863 47.9962 737.065 47.1534 737.918 46.0739C738.77 44.9943 739.196 43.7538 739.196 42.3523C739.196 41.0455 738.808 39.947 738.031 39.0568C737.274 38.1667 736.156 37.4091 734.679 36.7841C733.221 36.1591 731.431 35.5909 729.31 35.0795L722.974 33.4886C718.069 32.2955 714.196 30.4299 711.355 27.892C708.514 25.3542 707.103 21.9356 707.122 17.6364C707.103 14.1136 708.041 11.036 709.935 8.40341C711.848 5.77083 714.471 3.71591 717.804 2.23864C721.137 0.761362 724.925 0.0227251 729.168 0.0227251C733.486 0.0227251 737.255 0.761362 740.474 2.23864C743.713 3.71591 746.232 5.77083 748.031 8.40341C749.83 11.036 750.759 14.0852 750.815 17.5511H739.026ZM778.401 59V0.81818H817.605V10.9602H790.702V24.8239H815.588V34.9659H790.702V48.858H817.719V59H778.401Z" fill="#E32424"/>
</svg>
