<svg width="599" height="1050" viewBox="0 0 599 1050" fill="none" xmlns="http://www.w3.org/2000/svg">
<rect opacity="0.5" x="2.5" y="2.5" width="594" height="1045" rx="80.5" fill="white" stroke="black" stroke-width="5"/>
<circle opacity="0.5" cx="186.5" cy="103.5" r="37" fill="#D9D9D9" stroke="black" stroke-width="5"/>
<circle opacity="0.5" cx="286.5" cy="103.5" r="37" fill="#D9D9D9" stroke="black" stroke-width="5"/>
<circle opacity="0.5" cx="386.5" cy="103.5" r="37" fill="#D9D9D9" stroke="black" stroke-width="5"/>
<circle opacity="0.5" cx="486.5" cy="103.5" r="37" fill="#D9D9D9" stroke="black" stroke-width="5"/>
<circle cx="186.5" cy="356.5" r="39.5" fill="#D9D9D9"/>
<circle cx="286.5" cy="356.5" r="39.5" fill="#D9D9D9"/>
<circle cx="386.5" cy="356.5" r="39.5" fill="#D9D9D9"/>
<circle cx="486.5" cy="356.5" r="39.5" fill="#D9D9D9"/>
<circle cx="186.5" cy="588.5" r="39.5" fill="#D9D9D9"/>
<circle cx="286.5" cy="588.5" r="39.5" fill="#D9D9D9"/>
<circle cx="386.5" cy="588.5" r="39.5" fill="#D9D9D9"/>
<circle cx="486.5" cy="588.5" r="39.5" fill="#D9D9D9"/>
<circle cx="186.5" cy="828.5" r="39.5" fill="#D9D9D9"/>
<circle cx="286.5" cy="828.5" r="39.5" fill="#D9D9D9"/>
<circle cx="386.5" cy="828.5" r="39.5" fill="#D9D9D9"/>
<circle cx="486.5" cy="828.5" r="39.5" fill="#D9D9D9"/>
<circle cx="186.5" cy="240.5" r="39.5" fill="#D9D9D9"/>
<circle cx="286.5" cy="240.5" r="39.5" fill="#D9D9D9"/>
<circle cx="386.5" cy="240.5" r="39.5" fill="#D9D9D9"/>
<circle cx="486.5" cy="240.5" r="39.5" fill="#D9D9D9"/>
<circle cx="186.5" cy="472.5" r="39.5" fill="#D9D9D9"/>
<circle cx="286.5" cy="472.5" r="39.5" fill="#D9D9D9"/>
<circle cx="386.5" cy="472.5" r="39.5" fill="#D9D9D9"/>
<circle cx="486.5" cy="472.5" r="39.5" fill="#D9D9D9"/>
<circle cx="186.5" cy="704.5" r="39.5" fill="#D9D9D9"/>
<circle cx="286.5" cy="704.5" r="39.5" fill="#D9D9D9"/>
<circle cx="386.5" cy="704.5" r="39.5" fill="#D9D9D9"/>
<circle cx="486.5" cy="704.5" r="39.5" fill="#D9D9D9"/>
<circle cx="186.5" cy="944.5" r="39.5" fill="#D9D9D9"/>
<circle cx="286.5" cy="944.5" r="39.5" fill="#D9D9D9"/>
<circle cx="386.5" cy="944.5" r="39.5" fill="#D9D9D9"/>
<circle cx="486.5" cy="944.5" r="39.5" fill="#D9D9D9"/>
<circle cx="78.5" cy="356.5" r="11.5" fill="#D9D9D9"/>
<circle cx="78.5" cy="588.5" r="11.5" fill="#D9D9D9"/>
<circle cx="78.5" cy="828.5" r="11.5" fill="#D9D9D9"/>
<circle cx="78.5" cy="243.5" r="11.5" fill="#D9D9D9"/>
<circle cx="78.5" cy="475.5" r="11.5" fill="#D9D9D9"/>
<circle cx="78.5" cy="707.5" r="11.5" fill="#D9D9D9"/>
<circle cx="78.5" cy="947.5" r="11.5" fill="#D9D9D9"/>
<rect x="67" y="156" width="500" height="8" fill="#D9D9D9"/>
</svg>
